<svg id="Calque_1" data-name="Calque 1" xmlns="http://www.w3.org/2000/svg" viewBox="0 0 321.16 219.569"><title>logo-brain</title><path d="M820.15,503.107l9.579-23.831a13.61,13.61,0,0,1,8.846-7.913l77.795-22.85a14.436,14.436,0,0,1,5.292-.531L1047.943,458.8a14.2,14.2,0,0,1,7.815,3.168l45.216,37.291a13.4,13.4,0,0,1,3.846,5.154l19.14,45.673a12.923,12.923,0,0,1-.645,11.332l-22.843,40.926a13.413,13.413,0,0,1-1.331,1.954l-31.161,38.027a14.116,14.116,0,0,1-14.239,4.651l-77.5-18.925a14.039,14.039,0,0,1-6.569-3.662l-22.513-22.378a13.993,13.993,0,0,0-5.643-3.4l-98.184-31.092a13.535,13.535,0,0,1-8.911-8.809l-14.625-47A12.81,12.81,0,0,1,820.15,503.107Z" transform="translate(-807.809 -437.873)" fill="none" stroke="#457b9d" stroke-miterlimit="10" stroke-width="8"/><path d="M889.821,582.238l29.561-33.77a.089.089,0,0,0,.015-.095l-24.65-58.2-69.136,15.563a3.8,3.8,0,0,1-4.512-4.992l8.461-21.05a7.981,7.981,0,0,1,9.507-4.577l55.68,15.056,24.171-42.347a.1.1,0,0,1,.127-.038l76.408,35.772a.1.1,0,0,0,.081,0l56.722-24.329a.1.1,0,0,1,.135.075l8.223,81.453a.1.1,0,0,0,.163.058l42.6-39.277a.1.1,0,0,1,.163.07l-3.636,101.454a.1.1,0,0,1-.179.045l-39.1-62.161,39.172,62.282a.093.093,0,0,1-.085.141l-154.884-3.731a.1.1,0,0,1-.084-.053l-25.3-51.1a.089.089,0,0,1,.023-.109l75.7-64.529a.1.1,0,0,1,.153.1L944.881,599.4a.1.1,0,0,0,.134.118l115.618-58.57" transform="translate(-807.809 -437.873)" fill="none" stroke="#457b9d" stroke-miterlimit="10" stroke-width="8"/><ellipse cx="13.022" cy="68.787" rx="13.022" ry="12.529" fill="#e63946"/><ellipse cx="185.474" cy="47.121" rx="13.022" ry="12.529" fill="#e63946"/><ellipse cx="138.185" cy="160.544" rx="13.022" ry="12.529" fill="#e63946"/><ellipse cx="295.734" cy="64.266" rx="13.022" ry="12.529" fill="#e63946"/><ellipse cx="254.695" cy="100.233" rx="13.022" ry="12.529" fill="#e63946"/><ellipse cx="244.243" cy="20.113" rx="10.452" ry="10.056" fill="#a8dadc"/><ellipse cx="112.141" cy="105.811" rx="10.452" ry="10.056" fill="#a8dadc"/><ellipse cx="251.268" cy="209.513" rx="10.452" ry="10.056" fill="#a8dadc"/><ellipse cx="112.141" cy="10.056" rx="10.452" ry="10.056" fill="#a8dadc"/><ellipse cx="86.783" cy="51.737" rx="10.452" ry="10.056" fill="#a8dadc"/><ellipse cx="292.46" cy="163.622" rx="9.822" ry="9.451" fill="#a8dadc"/><ellipse cx="26.043" cy="34.592" rx="10.452" ry="10.056" fill="#a8dadc"/><ellipse cx="84.213" cy="144.717" rx="13.022" ry="12.529" fill="#e63946"/></svg>